HIERARCHY
ROOT joint_Root
{
	OFFSET 0.0 0.0 0.0
	CHANNELS 6 Xposition Yposition Zposition Zrotation Xrotation Yrotation 
	JOINT Hips
	{
		OFFSET -0.726466 93.3139 -2.00062
		CHANNELS 6 Xposition Yposition Zposition Zrotation Xrotation Yrotation 
		JOINT Spine
		{
			OFFSET 15.7357 0.0 0.0
			CHANNELS 6 Xposition Yposition Zposition Zrotation Xrotation Yrotation 
			JOINT Chest
			{
				OFFSET 8.98455 -0.406207 0.0
				CHANNELS 6 Xposition Yposition Zposition Zrotation Xrotation Yrotation 
				JOINT Neck
				{
					OFFSET 16.3773 0.0 0.0
					CHANNELS 6 Xposition Yposition Zposition Zrotation Xrotation Yrotation 
					JOINT Head
					{
						OFFSET 6.45672 0.0 0.0
						CHANNELS 6 Xposition Yposition Zposition Zrotation Xrotation Yrotation 
						End Site
						{
							OFFSET 0.0 0.0 0.0
						}
					}
				}
				JOINT Shoulder_L
				{
					OFFSET 12.9942 -0.242716 4.98039
					CHANNELS 6 Xposition Yposition Zposition Zrotation Xrotation Yrotation 
					JOINT UpperArm_L
					{
						OFFSET 5.34809 0.0 0.0
						CHANNELS 6 Xposition Yposition Zposition Zrotation Xrotation Yrotation 
						JOINT LowerArm_L
						{
							OFFSET 24.3286 1.87007e-05 0.0
							CHANNELS 6 Xposition Yposition Zposition Zrotation Xrotation Yrotation 
							JOINT Hand_L
							{
								OFFSET 22.2916 0.0 0.0
								CHANNELS 6 Xposition Yposition Zposition Zrotation Xrotation Yrotation 
								End Site
								{
									OFFSET 0.0 0.0 0.0
								}
							}
						}
					}
				}
				JOINT Shoulder_R
				{
					OFFSET 12.9945 -0.242716 -4.98039
					CHANNELS 6 Xposition Yposition Zposition Zrotation Xrotation Yrotation 
					JOINT UpperArm_R
					{
						OFFSET -5.34813 0.0 0.0
						CHANNELS 6 Xposition Yposition Zposition Zrotation Xrotation Yrotation 
						JOINT LowerArm_R
						{
							OFFSET -24.3289 0.000322201 0.0
							CHANNELS 6 Xposition Yposition Zposition Zrotation Xrotation Yrotation 
							JOINT Hand_R
							{
								OFFSET -22.2915 -0.000108084 0.0
								CHANNELS 6 Xposition Yposition Zposition Zrotation Xrotation Yrotation 
								End Site
								{
									OFFSET 0.0 0.0 0.0
								}
							}
						}
					}
				}
			}
		}
		JOINT UpperLeg_L
		{
			OFFSET -2.19248 -6.46944 0.0
			CHANNELS 6 Xposition Yposition Zposition Zrotation Xrotation Yrotation 
			JOINT LowerLeg_L
			{
				OFFSET 39.0811 0.0 -1.23785e-05
				CHANNELS 6 Xposition Yposition Zposition Zrotation Xrotation Yrotation 
				JOINT Foot_L
				{
					OFFSET 40.9854 0.0 -1.26872e-05
					CHANNELS 6 Xposition Yposition Zposition Zrotation Xrotation Yrotation 
					JOINT Toes_L
					{
						OFFSET 11.7543 0.0 0.0
						CHANNELS 6 Xposition Yposition Zposition Zrotation Xrotation Yrotation 
						End Site
						{
							OFFSET 0.0 0.0 0.0
						}
					}
				}
			}
		}
		JOINT UpperLeg_R
		{
			OFFSET -2.19251 6.46944 0.0
			CHANNELS 6 Xposition Yposition Zposition Zrotation Xrotation Yrotation 
			JOINT LowerLeg_R
			{
				OFFSET -39.0811 -0.00228153 -0.0401928
				CHANNELS 6 Xposition Yposition Zposition Zrotation Xrotation Yrotation 
				JOINT Foot_R
				{
					OFFSET -40.9854 0.0 0.0
					CHANNELS 6 Xposition Yposition Zposition Zrotation Xrotation Yrotation 
					JOINT Toes_R
					{
						OFFSET -11.7543 0.0 0.0
						CHANNELS 6 Xposition Yposition Zposition Zrotation Xrotation Yrotation 
						End Site
						{
							OFFSET 0.0 0.0 0.0
						}
					}
				}
			}
		}
	}
}
MOTION
Frames:	6
Frame Time:	0.0333333
0.000000 0.000000 0.000000 0.000000 0.000000 -0.000000 -0.697375 92.108300 1.101990 88.157300 -0.088019 4.561610 15.735700 0.000005 -0.000001 81.986800 85.720000 -81.385600 8.984550 -0.406207 -0.000000 0.717382 -1.229820 1.209150 16.377300 -0.000001 -0.000001 2.297770 -2.375750 0.108229 6.456720 -0.000001 -0.000000 8.587050 -2.674540 -0.625873 12.994200 -0.242716 4.980390 -89.627200 -1.152580 -72.073500 5.348090 -0.000007 -0.000001 -68.456400 39.231500 -14.496700 24.328600 0.000019 0.000005 1.518040 3.531810 -23.273500 22.291600 -0.000001 0.000005 5.804280 5.461300 -5.048080 12.994500 -0.242716 -4.980390 88.471300 4.888490 -72.611400 -5.348130 -0.000001 -0.000004 -64.708300 40.148600 -15.679900 -24.328900 0.000322 -0.000009 2.587210 7.169490 -19.909700 -22.291500 -0.000108 -0.000004 7.037530 5.322040 -0.555277 -2.192480 -6.469440 -0.000000 -175.153000 -8.099900 -1.220620 39.081100 -0.000007 -0.000012 -0.118645 0.276708 23.208500 40.985400 -0.000006 -0.000013 -0.229060 3.992640 -67.553500 11.754300 -0.000000 0.000003 -0.000064 -0.000700 -16.604600 -2.192510 6.469440 -0.000001 179.022000 15.240500 -177.998000 -39.081100 -0.002282 -0.040193 -0.062936 0.189487 19.273300 -40.985400 0.000008 0.000006 2.360360 7.507510 -66.921800 -11.754300 -0.000006 -0.000006 -0.008011 -0.088123 -20.161500
0.000000 0.000000 0.000000 0.000000 0.000000 -0.000000 -0.678719 92.105900 1.062730 88.175000 -0.113069 4.569730 15.735700 0.000005 -0.000001 82.295800 85.694100 -81.713900 8.984550 -0.406207 -0.000000 0.774578 -1.189570 1.170950 16.377300 -0.000001 -0.000001 2.223310 -2.339310 0.179763 6.456720 -0.000001 -0.000000 8.285870 -2.749260 -0.609779 12.994200 -0.242716 4.980390 -89.685400 -0.954156 -71.752400 5.348090 -0.000007 -0.000001 -66.588500 37.232700 -15.740200 24.328600 0.000019 0.000005 1.841820 3.801410 -25.872500 22.291600 -0.000001 0.000005 5.232930 5.463990 -5.147130 12.994500 -0.242716 -4.980390 88.435500 4.933560 -72.381200 -5.348130 -0.000001 -0.000004 -62.077100 39.593900 -16.844900 -24.328900 0.000322 -0.000009 2.946840 6.598730 -24.142100 -22.291500 -0.000108 -0.000004 5.804190 5.331160 -0.819937 -2.192480 -6.469440 -0.000000 -175.185000 -8.079870 -1.261240 39.081100 -0.000007 -0.000012 -0.119214 0.277557 23.244300 40.985400 -0.000006 -0.000013 -0.220997 3.972630 -67.542200 11.754300 -0.000000 0.000003 -0.000064 -0.000705 -16.604800 -2.192510 6.469440 -0.000001 178.991000 15.223400 -178.063000 -39.081100 -0.002282 -0.040193 -0.065905 0.197271 19.337400 -40.985400 0.000008 0.000006 2.248500 7.528560 -66.894000 -11.754300 -0.000006 -0.000006 -0.007993 -0.087976 -20.155500
0.000000 0.000000 0.000000 0.000000 0.000000 -0.000000 -0.664464 92.114600 0.964597 88.165500 -0.107897 4.656620 15.735700 0.000005 -0.000001 82.685900 85.658400 -82.115000 8.984550 -0.406207 -0.000000 0.852726 -1.139480 1.149250 16.377300 -0.000001 -0.000001 2.383960 -2.328670 0.215034 6.456720 -0.000001 -0.000000 7.970830 -2.826490 -0.549534 12.994200 -0.242716 4.980390 -89.700700 -0.892211 -71.455000 5.348090 -0.000007 -0.000001 -63.417000 34.224200 -18.278400 24.328600 0.000019 0.000005 2.383090 4.207740 -29.559600 22.291600 -0.000001 0.000005 6.015800 5.472060 -5.443490 12.994500 -0.242716 -4.980390 88.454400 4.764680 -72.004100 -5.348130 -0.000001 -0.000004 -58.225300 37.776100 -19.401900 -24.328900 0.000322 -0.000009 3.518620 6.344730 -29.096800 -22.291500 -0.000108 -0.000004 5.976420 5.346030 -1.257980 -2.192480 -6.469440 -0.000000 -175.185000 -8.092410 -1.251980 39.081100 -0.000007 -0.000012 -0.118769 0.276293 23.261400 40.985400 -0.000006 -0.000013 -0.206690 3.958510 -67.482900 11.754300 -0.000000 0.000003 -0.000064 -0.000697 -16.604500 -2.192510 6.469440 -0.000001 178.992000 15.215000 -178.050000 -39.081100 -0.002282 -0.040193 -0.064208 0.192230 19.356500 -40.985400 0.000008 0.000006 2.300850 7.504990 -66.847000 -11.754300 -0.000006 -0.000006 -0.007842 -0.086741 -20.105100
0.000000 0.000000 0.000000 0.000000 0.000000 -0.000000 -0.660659 92.123700 0.804183 88.159300 -0.043379 4.740200 15.735700 0.000005 -0.000001 82.563700 85.653600 -82.001400 8.984550 -0.406207 -0.000000 0.859872 -1.158520 1.132540 16.377300 -0.000001 -0.000001 2.660040 -2.336410 0.183596 6.456720 -0.000001 -0.000000 8.043560 -2.888620 -0.525453 12.994200 -0.242716 4.980390 -89.657100 -1.016620 -71.358000 5.348090 -0.000007 -0.000001 -59.719200 29.605200 -21.737200 24.328600 0.000019 0.000005 2.920680 4.412140 -33.548200 22.291600 -0.000001 0.000005 7.519460 5.484140 -5.905960 12.994500 -0.242716 -4.980390 88.554400 4.348100 -71.589300 -5.348130 -0.000001 -0.000004 -53.689700 34.345400 -23.266300 -24.328900 0.000322 -0.000009 4.334900 6.461350 -33.970000 -22.291500 -0.000108 -0.000004 7.571860 5.349710 -1.367810 -2.192480 -6.469440 -0.000000 -175.187000 -8.044710 -1.327410 39.081100 -0.000007 -0.000012 -0.118494 0.274858 23.321500 40.985400 -0.000006 -0.000013 -0.188891 3.986050 -67.390900 11.754300 -0.000000 0.000003 -0.000066 -0.000721 -16.605400 -2.192510 6.469440 -0.000001 179.001000 15.249300 -178.109000 -39.081100 -0.002282 -0.040193 -0.065074 0.194105 19.411000 -40.985400 0.000008 0.000006 2.252000 7.468350 -66.751700 -11.754300 -0.000006 -0.000006 -0.008005 -0.088077 -20.159600
0.000000 0.000000 0.000000 0.000000 0.000000 -0.000000 -0.646232 92.131700 0.671791 88.158100 0.051513 4.899590 15.735700 0.000005 -0.000001 82.290400 85.665000 -81.732700 8.984550 -0.406207 -0.000000 0.831917 -1.196410 1.123180 16.377300 -0.000001 -0.000001 2.979270 -2.349460 0.107830 6.456720 -0.000001 -0.000000 8.414340 -2.865370 -0.502775 12.994200 -0.242716 4.980390 -89.558100 -1.309880 -71.353900 5.348090 -0.000007 -0.000001 -56.066100 23.624500 -25.749600 24.328600 0.000019 0.000005 3.150720 4.096490 -37.619100 22.291600 -0.000001 0.000005 8.957130 5.496670 -6.397160 12.994500 -0.242716 -4.980390 88.710600 3.783140 -71.163700 -5.348130 -0.000001 -0.000004 -49.219600 29.102100 -27.716800 -24.328900 0.000322 -0.000009 4.597130 5.803750 -38.499100 -22.291500 -0.000108 -0.000004 9.064430 5.351290 -1.417570 -2.192480 -6.469440 -0.000000 -175.181000 -8.072300 -1.286880 39.081100 -0.000007 -0.000012 -0.116642 0.270075 23.358900 40.985400 -0.000006 -0.000013 -0.146187 4.079390 -67.315600 11.754300 -0.000000 0.000003 -0.000067 -0.000728 -16.605700 -2.192510 6.469440 -0.000001 178.978000 15.246900 -178.052000 -39.081100 -0.002282 -0.040193 -0.065814 0.195789 19.449000 -40.985400 0.000008 0.000006 2.238250 7.376260 -66.683900 -11.754300 -0.000006 -0.000006 -0.007969 -0.087776 -20.147400
0.000000 0.000000 0.000000 0.000000 0.000000 -0.000000 -0.629713 92.135600 0.538871 88.165100 0.164607 5.047890 15.735700 0.000005 -0.000001 81.888300 85.682100 -81.338800 8.984550 -0.406207 -0.000000 0.789795 -1.251530 1.106660 16.377300 -0.000001 -0.000001 3.284550 -2.335240 0.039343 6.456720 -0.000001 -0.000000 8.772930 -2.799570 -0.486415 12.994200 -0.242716 4.980390 -89.411300 -1.744970 -71.352900 5.348090 -0.000007 -0.000001 -52.655900 16.823700 -30.132800 24.328600 0.000019 0.000005 3.249390 3.646400 -41.760900 22.291600 -0.000001 0.000005 10.453200 5.505570 -6.756720 12.994500 -0.242716 -4.980390 88.904000 3.149670 -70.801700 -5.348130 -0.000001 -0.000004 -45.178600 22.470500 -32.257900 -24.328900 0.000322 -0.000009 4.590850 4.923940 -43.096300 -22.291500 -0.000108 -0.000004 10.816300 5.346690 -1.278180 -2.192480 -6.469440 -0.000000 -175.189000 -8.030570 -1.285240 39.081100 -0.000007 -0.000012 -0.115652 0.266930 23.425500 40.985400 -0.000006 -0.000013 -0.106100 4.167760 -67.245500 11.754300 -0.000000 0.000003 -0.000068 -0.000738 -16.606100 -2.192510 6.469440 -0.000001 178.908000 15.314000 -177.997000 -39.081100 -0.002282 -0.040193 -0.070899 0.209987 19.466300 -40.985400 0.000008 0.000006 1.974920 7.401220 -66.561300 -11.754300 -0.000006 -0.000006 -0.007821 -0.086566 -20.098000
